<?xml version="1.0" encoding="UTF-8"?>
<svg xmlns="http://www.w3.org/2000/svg" viewBox="0 0 1280 720">
  <rect x="0" y="0" width="1280" height="720" fill="#FFFFFF"/>
  <rect x="0" y="0" width="1280" height="5" fill="#4295B6"/>
  <text x="64" y="45" fill="#4B5563" font-family="Microsoft YaHei" font-size="13">08 / MONTHLY PLAN TABLE</text>
  <g id="huixin-logo" transform="translate(1032 18) scale(0.52)">
    <polygon points="0,10 14,10 31,44 17,44" fill="#D2D3D4"/>
    <polygon points="24,10 43,10 60,44 41,44" fill="#B0D776"/>
    <polygon points="51,10 65,10 82,44 68,44" fill="#D2D3D4"/>
    <polygon points="75,10 101,10 118,44 92,44" fill="#4295B6"/>
    <text x="140" y="34" fill="#000000" font-family="Microsoft YaHei" font-size="28" font-weight="700">慧新全智</text>
    <line x1="140" y1="44" x2="268" y2="44" stroke="#4295B6" stroke-width="3"/>
  </g>
  <text x="64" y="112" fill="#0B2F3A" font-family="Microsoft YaHei" font-size="36" font-weight="700">{{PAGE_TITLE}}</text>
  <text x="64" y="152" fill="#4295B6" font-family="Microsoft YaHei" font-size="19" font-weight="700">{{KEY_MESSAGE}}</text>
  <rect x="64" y="204" width="1152" height="374" rx="4" fill="#FFFFFF" stroke="#D2D3D4"/>
  <rect x="64" y="204" width="1152" height="48" fill="#F3F7FA"/>
  <text x="92" y="234" fill="#0B2F3A" font-family="Microsoft YaHei" font-size="15" font-weight="700">月份</text>
  <text x="220" y="234" fill="#0B2F3A" font-family="Microsoft YaHei" font-size="15" font-weight="700">重点任务</text>
  <text x="520" y="234" fill="#0B2F3A" font-family="Microsoft YaHei" font-size="15" font-weight="700">交付物</text>
  <text x="790" y="234" fill="#0B2F3A" font-family="Microsoft YaHei" font-size="15" font-weight="700">责任人</text>
  <text x="980" y="234" fill="#0B2F3A" font-family="Microsoft YaHei" font-size="15" font-weight="700">检查机制</text>
  <line x1="64" y1="252" x2="1216" y2="252" stroke="#D2D3D4"/>
  <text x="92" y="304" fill="#4295B6" font-family="Microsoft YaHei" font-size="17" font-weight="700">{{MONTH_1}}</text>
  <text x="220" y="304" fill="#4B5563" font-family="Microsoft YaHei" font-size="15">{{TASK_1}}</text>
  <text x="520" y="304" fill="#4B5563" font-family="Microsoft YaHei" font-size="15">{{OUTPUT_1}}</text>
  <text x="790" y="304" fill="#4B5563" font-family="Microsoft YaHei" font-size="15">{{OWNER_1}}</text>
  <text x="980" y="304" fill="#4B5563" font-family="Microsoft YaHei" font-size="15">{{CHECK_1}}</text>
  <line x1="64" y1="338" x2="1216" y2="338" stroke="#D2D3D4"/>
  <text x="92" y="390" fill="#4295B6" font-family="Microsoft YaHei" font-size="17" font-weight="700">{{MONTH_2}}</text>
  <text x="220" y="390" fill="#4B5563" font-family="Microsoft YaHei" font-size="15">{{TASK_2}}</text>
  <text x="520" y="390" fill="#4B5563" font-family="Microsoft YaHei" font-size="15">{{OUTPUT_2}}</text>
  <text x="790" y="390" fill="#4B5563" font-family="Microsoft YaHei" font-size="15">{{OWNER_2}}</text>
  <text x="980" y="390" fill="#4B5563" font-family="Microsoft YaHei" font-size="15">{{CHECK_2}}</text>
  <line x1="64" y1="424" x2="1216" y2="424" stroke="#D2D3D4"/>
  <text x="92" y="476" fill="#B0D776" font-family="Microsoft YaHei" font-size="17" font-weight="700">{{MONTH_3}}</text>
  <text x="220" y="476" fill="#4B5563" font-family="Microsoft YaHei" font-size="15">{{TASK_3}}</text>
  <text x="520" y="476" fill="#4B5563" font-family="Microsoft YaHei" font-size="15">{{OUTPUT_3}}</text>
  <text x="790" y="476" fill="#4B5563" font-family="Microsoft YaHei" font-size="15">{{OWNER_3}}</text>
  <text x="980" y="476" fill="#4B5563" font-family="Microsoft YaHei" font-size="15">{{CHECK_3}}</text>
  <line x1="64" y1="510" x2="1216" y2="510" stroke="#D2D3D4"/>
  <text x="92" y="560" fill="#4295B6" font-family="Microsoft YaHei" font-size="17" font-weight="700">{{MONTH_4}}</text>
  <text x="220" y="560" fill="#4B5563" font-family="Microsoft YaHei" font-size="15">{{TASK_4}}</text>
  <text x="520" y="560" fill="#4B5563" font-family="Microsoft YaHei" font-size="15">{{OUTPUT_4}}</text>
  <text x="790" y="560" fill="#4B5563" font-family="Microsoft YaHei" font-size="15">{{OWNER_4}}</text>
  <text x="980" y="560" fill="#4B5563" font-family="Microsoft YaHei" font-size="15">{{CHECK_4}}</text>
  <rect x="64" y="606" width="1152" height="44" rx="4" fill="#0B2F3A"/>
  <text x="88" y="634" fill="#FFFFFF" font-family="Microsoft YaHei" font-size="15">管理闭环：{{CLOSURE_NOTE}}</text>
  <text x="64" y="674" fill="#4B5563" font-family="Microsoft YaHei" font-size="11">Huixin Management Report Template</text>
  <text x="1216" y="674" text-anchor="end" fill="#4B5563" font-family="Microsoft YaHei" font-size="12">{{PAGE_NUM}}</text>
</svg>
