<?xml version="1.0" encoding="UTF-8"?>
<svg xmlns="http://www.w3.org/2000/svg" width="1280" height="720" viewBox="0 0 1280 720" data-pptx-master="huixin-periodic-master" data-pptx-master-name="慧新月度季度汇报" data-pptx-layout="periodic-blank" data-pptx-layout-name="慧新月度季度通用页" data-pptx-page-role="content">
<g id="page-header-24" data-pptx-bounds="0 0 1280 178">
  <rect x="0" y="0" width="1280" height="720" fill="#FFFFFF"/>
  <rect x="0" y="0" width="1280" height="4" fill="#0097BA"/>
  <rect x="0" y="4" width="260" height="4" fill="#A4D968"/>
  <rect x="12" y="20" width="7" height="50" fill="#83C410"/>
  <rect x="24" y="20" width="4" height="50" fill="#0097BA"/>
  <image href="images/huixin_logo_light.png" x="1040" y="24" width="168" height="27" preserveAspectRatio="xMinYMin meet"/>
  <text x="64" y="44" font-family="Microsoft YaHei, Arial, sans-serif" font-size="13" font-weight="700" fill="#0097BA" text-anchor="start">CHART / KPI</text>
  <text x="64" y="102" font-family="Microsoft YaHei, Arial, sans-serif" font-size="36" font-weight="700" fill="#111111" text-anchor="start">季度KPI趋势小多图</text>
  <text x="64" y="140" font-family="Microsoft YaHei, Arial, sans-serif" font-size="17" font-weight="700" fill="#0097BA" text-anchor="start">四个指标保持相同时间窗口，分别呈现方向、目标线和管理判断</text>
  <line x1="64" y1="166" x2="1216" y2="166" stroke="#D9D9D9" stroke-width="1"/>
</g>
<g id="quarterly-kpi-small-multiples" data-pptx-bounds="64 208 1128 384">
  <rect x="64" y="208" width="552" height="180" fill="#FFFFFF" stroke="#D9D9D9" stroke-width="1" rx="7"/>
  <text x="88" y="242" font-family="Microsoft YaHei, Arial, sans-serif" font-size="15" font-weight="700" fill="#111111" text-anchor="start">{{KPI_SMALL_1_TITLE}}</text>
  <text x="592" y="242" font-family="Microsoft YaHei, Arial, sans-serif" font-size="18" font-weight="700" fill="#0097BA" text-anchor="end">{{KPI_SMALL_1_VALUE}}</text>
  <line x1="106" y1="350" x2="574" y2="350" stroke="#D9D9D9" stroke-width="1"/>
  <path d="M 106 346 L 176 322 L 246 334 L 316 286 L 386 260" fill="none" stroke="#0097BA" stroke-width="3"/>
  <line x1="106" y1="290" x2="574" y2="290" stroke="#D8665B" stroke-width="1" stroke-dasharray="5 4"/>
  <text x="106" y="372" font-family="Microsoft YaHei, Arial, sans-serif" font-size="10" font-weight="400" fill="#4B5563" text-anchor="start">{{PERIOD_START}}</text>
  <text x="574" y="372" font-family="Microsoft YaHei, Arial, sans-serif" font-size="10" font-weight="400" fill="#4B5563" text-anchor="end">{{PERIOD_END}}</text>
  <rect x="640" y="208" width="552" height="180" fill="#FFFFFF" stroke="#D9D9D9" stroke-width="1" rx="7"/>
  <text x="664" y="242" font-family="Microsoft YaHei, Arial, sans-serif" font-size="15" font-weight="700" fill="#111111" text-anchor="start">{{KPI_SMALL_2_TITLE}}</text>
  <text x="1168" y="242" font-family="Microsoft YaHei, Arial, sans-serif" font-size="18" font-weight="700" fill="#A4D968" text-anchor="end">{{KPI_SMALL_2_VALUE}}</text>
  <line x1="682" y1="350" x2="1150" y2="350" stroke="#D9D9D9" stroke-width="1"/>
  <path d="M 666 316 L 736 300 L 806 266 L 876 278 L 946 242" fill="none" stroke="#A4D968" stroke-width="3"/>
  <line x1="682" y1="290" x2="1150" y2="290" stroke="#D8665B" stroke-width="1" stroke-dasharray="5 4"/>
  <text x="682" y="372" font-family="Microsoft YaHei, Arial, sans-serif" font-size="10" font-weight="400" fill="#4B5563" text-anchor="start">{{PERIOD_START}}</text>
  <text x="1150" y="372" font-family="Microsoft YaHei, Arial, sans-serif" font-size="10" font-weight="400" fill="#4B5563" text-anchor="end">{{PERIOD_END}}</text>
  <rect x="64" y="412" width="552" height="180" fill="#FFFFFF" stroke="#D9D9D9" stroke-width="1" rx="7"/>
  <text x="88" y="446" font-family="Microsoft YaHei, Arial, sans-serif" font-size="15" font-weight="700" fill="#111111" text-anchor="start">{{KPI_SMALL_3_TITLE}}</text>
  <text x="592" y="446" font-family="Microsoft YaHei, Arial, sans-serif" font-size="18" font-weight="700" fill="#0097BA" text-anchor="end">{{KPI_SMALL_3_VALUE}}</text>
  <line x1="106" y1="554" x2="574" y2="554" stroke="#D9D9D9" stroke-width="1"/>
  <path d="M 106 548 L 176 520 L 246 526 L 316 486 L 386 472" fill="none" stroke="#0097BA" stroke-width="3"/>
  <line x1="106" y1="494" x2="574" y2="494" stroke="#D8665B" stroke-width="1" stroke-dasharray="5 4"/>
  <text x="106" y="576" font-family="Microsoft YaHei, Arial, sans-serif" font-size="10" font-weight="400" fill="#4B5563" text-anchor="start">{{PERIOD_START}}</text>
  <text x="574" y="576" font-family="Microsoft YaHei, Arial, sans-serif" font-size="10" font-weight="400" fill="#4B5563" text-anchor="end">{{PERIOD_END}}</text>
  <rect x="640" y="412" width="552" height="180" fill="#FFFFFF" stroke="#D9D9D9" stroke-width="1" rx="7"/>
  <text x="664" y="446" font-family="Microsoft YaHei, Arial, sans-serif" font-size="15" font-weight="700" fill="#111111" text-anchor="start">{{KPI_SMALL_4_TITLE}}</text>
  <text x="1168" y="446" font-family="Microsoft YaHei, Arial, sans-serif" font-size="18" font-weight="700" fill="#A4D968" text-anchor="end">{{KPI_SMALL_4_VALUE}}</text>
  <line x1="682" y1="554" x2="1150" y2="554" stroke="#D9D9D9" stroke-width="1"/>
  <path d="M 666 538 L 736 526 L 806 508 L 876 476 L 946 462" fill="none" stroke="#A4D968" stroke-width="3"/>
  <line x1="682" y1="494" x2="1150" y2="494" stroke="#D8665B" stroke-width="1" stroke-dasharray="5 4"/>
  <text x="682" y="576" font-family="Microsoft YaHei, Arial, sans-serif" font-size="10" font-weight="400" fill="#4B5563" text-anchor="start">{{PERIOD_START}}</text>
  <text x="1150" y="576" font-family="Microsoft YaHei, Arial, sans-serif" font-size="10" font-weight="400" fill="#4B5563" text-anchor="end">{{PERIOD_END}}</text>
</g>
<g id="quarterly-kpi-conclusion" data-pptx-bounds="64 610 1128 36">
  <rect x="64" y="610" width="1128" height="36" fill="#4B5563" rx="4"/>
  <text x="84" y="634" font-family="Microsoft YaHei, Arial, sans-serif" font-size="13" font-weight="700" fill="#FFFFFF" text-anchor="start">趋势结论：{{KPI_TREND_CONCLUSION}}</text>
</g>
<g id="page-footer-24" data-pptx-bounds="0 672 1280 48">
  <image href="images/huixin_light_footer_ribbon.png" x="0" y="678" width="1280" height="42" preserveAspectRatio="xMidYMax meet"/>
  <text x="64" y="704" font-family="Microsoft YaHei, Arial, sans-serif" font-size="10" font-weight="400" fill="#FFFFFF" text-anchor="start">HUIXIN PERIODIC BUSINESS REVIEW</text>
  <text x="1214" y="704" font-family="Microsoft YaHei, Arial, sans-serif" font-size="11" font-weight="700" fill="#FFFFFF" text-anchor="end">24</text>
</g>
</svg>
