<svg xmlns="http://www.w3.org/2000/svg" width="1280" height="720" viewBox="0 0 1280 720">
  <rect width="1280" height="720" fill="#FFFFFF"/>
  <rect width="1280" height="4" fill="#0097BA"/>
  <image x="1082" y="22" width="134" height="32" preserveAspectRatio="xMinYMin meet" href="images/huixin_logo_light.png"/>
  <g id="huixin-0826-header-accent" data-pptx-bounds="12 20 18 52" data-pptx-role="decoration">
      <rect x="12" y="20" width="7" height="50" fill="#83C410"/>
      <rect x="24" y="20" width="4" height="50" fill="#0097BA"/>
    </g>

  <text x="64" y="48" font-family="Microsoft YaHei, Arial, sans-serif" font-size="13" fill="#4B5563">MANAGEMENT ASK</text>
  <text x="64" y="116" font-family="Microsoft YaHei, Arial, sans-serif" font-size="34" font-weight="bold" fill="#111111">{{PAGE_TITLE}}</text>
  <text x="64" y="154" font-family="Microsoft YaHei, Arial, sans-serif" font-size="20" font-weight="bold" fill="#0097BA">{{KEY_MESSAGE}}</text>
  <line x1="64" y1="178" x2="1216" y2="178" stroke="#D9D9D9"/>
  <g id="ask-grid">
    <rect x="64" y="226" width="360" height="260" rx="4" fill="#F5F6F7" stroke="#D9D9D9"/>
    <rect x="64" y="226" width="360" height="54" fill="#111111"/>
    <text x="92" y="260" font-family="Microsoft YaHei, Arial, sans-serif" font-size="20" font-weight="bold" fill="#FFFFFF">需要决策的事项</text>
    <text x="92" y="324" font-family="Microsoft YaHei, Arial, sans-serif" font-size="16" fill="#111111">1. {{DECISION_1}}</text>
    <text x="92" y="374" font-family="Microsoft YaHei, Arial, sans-serif" font-size="16" fill="#111111">2. {{DECISION_2}}</text>
    <text x="92" y="424" font-family="Microsoft YaHei, Arial, sans-serif" font-size="16" fill="#111111">3. {{DECISION_3}}</text>
    <rect x="460" y="226" width="360" height="260" rx="4" fill="#FFFFFF" stroke="#D9D9D9"/>
    <rect x="460" y="226" width="360" height="54" fill="#0097BA"/>
    <text x="488" y="260" font-family="Microsoft YaHei, Arial, sans-serif" font-size="20" font-weight="bold" fill="#FFFFFF">推荐方案</text>
    <text x="488" y="324" font-family="Microsoft YaHei, Arial, sans-serif" font-size="16" fill="#111111">方案：{{RECOMMENDATION}}</text>
    <text x="488" y="374" font-family="Microsoft YaHei, Arial, sans-serif" font-size="16" fill="#111111">理由：{{RATIONALE}}</text>
    <text x="488" y="424" font-family="Microsoft YaHei, Arial, sans-serif" font-size="16" fill="#111111">收益：{{EXPECTED_VALUE}}</text>
    <rect x="856" y="226" width="360" height="260" rx="4" fill="#F5F6F7" stroke="#D9D9D9"/>
    <rect x="856" y="226" width="360" height="54" fill="#A4D968"/>
    <text x="884" y="260" font-family="Microsoft YaHei, Arial, sans-serif" font-size="20" font-weight="bold" fill="#111111">资源需求</text>
    <text x="884" y="324" font-family="Microsoft YaHei, Arial, sans-serif" font-size="16" fill="#111111">预算：{{BUDGET}}</text>
    <text x="884" y="374" font-family="Microsoft YaHei, Arial, sans-serif" font-size="16" fill="#111111">团队：{{TEAM}}</text>
    <text x="884" y="424" font-family="Microsoft YaHei, Arial, sans-serif" font-size="16" fill="#111111">周期：{{TIMELINE}}</text>
  </g>
  <rect x="64" y="532" width="1152" height="62" rx="4" fill="#111111"/>
  <text x="92" y="570" font-family="Microsoft YaHei, Arial, sans-serif" font-size="20" font-weight="bold" fill="#FFFFFF">下一步：{{NEXT_STEP}}</text>
  <text x="64" y="674" font-family="Microsoft YaHei, Arial, sans-serif" font-size="11" fill="#4B5563">Huixin Consulting Strategy Template</text>
</svg>
